<svg width="0" height="0" class="hidden">
  <symbol xmlns="http://www.w3.org/2000/svg" viewBox="0 0 15 16" id="arrow-left">
    <path fill="#FFF" d="M8 0 0 8l8 8 1.69-1.69L4.57 9.2H14.8V6.81H4.57l5.12-5.12z"></path>
  </symbol>
  <symbol xmlns="http://www.w3.org/2000/svg" viewBox="0 0 15 16" id="arrow-right">
    <path fill="#FFF" d="m6.8 16 8-8-8-8-1.68 1.69 5.12 5.12H0v2.38h10.24l-5.12 5.12z"></path>
  </symbol>
  <symbol xmlns="http://www.w3.org/2000/svg" viewBox="0 0 64 64" id="logo">
    <g fill="none" fill-rule="evenodd">
      <path fill="#030303" d="M0 0h64v64H0z"></path>
      <circle stroke="#FFF7F0" stroke-width="4" cx="32" cy="32" r="14"></circle>
    </g>
  </symbol>
  <symbol xmlns="http://www.w3.org/2000/svg" viewBox="0 0 64 64" id="pattern-apps">
    <g fill="none" fill-rule="evenodd">
      <g transform="translate(0 32)">
        <rect fill="#552049" width="64" height="32" rx="16"></rect>
        <circle stroke="#FFF7F0" stroke-width="4" cx="48" cy="16" r="14"></circle>
      </g>
      <path d="M0 14h4v4H0zm4 0h4v4H4zm24 0h4v4h-4z" fill="#030303"></path>
      <path fill="#755CDE" d="m32 0 32 32V0z"></path>
      <path d="M32 14h4v4h-4zm24 0h4v4h-4zm4 0h4v4h-4z" fill="#030303"></path>
    </g>
  </symbol>
  <symbol xmlns="http://www.w3.org/2000/svg" viewBox="0 0 128 192" id="pattern-graphic-design">
    <g fill="none" fill-rule="evenodd">
      <path fill="#552049" d="M0 0h64v128H0z"></path>
      <circle stroke="#FFF7F0" stroke-width="4" cx="32" cy="32" r="14"></circle>
      <g transform="translate(32 32)">
        <rect fill="#F6A560" x="32" width="64" height="32" rx="16"></rect>
        <path fill="#61C4B7" d="m0 128 32 32v-32zm32-32 32 32V96z"></path>
        <circle stroke="#FFF7F0" stroke-width="4" cx="80" cy="16" r="14"></circle>
        <circle stroke="#FFF7F0" stroke-width="4" cx="80" cy="16" r="14"></circle>
      </g>
      <path d="M64 14h4v4h-4zm4 0h4v4h-4zm24 0h4v4h-4z" fill="#030303"></path>
      <path fill="#755CDE" d="m96 0 32 32V0z"></path>
      <path d="M96 14h4v4h-4zm24 0h4v4h-4zm4 0h4v4h-4z" fill="#030303"></path>
      <circle stroke="#030303" stroke-width="4" cx="80" cy="80" r="14"></circle>
      <path fill="#EB7565" d="M96 64h32v32H96z"></path>
      <path fill="#FFF7F0" d="m32 96 96 96V96z"></path>
      <g fill="#030303">
        <path d="M0 128h4v4H0zm14 0h4v4h-4zm14 0h4v4h-4zM0 142h4v4H0zm14 0h4v4h-4zm14 0h4v4h-4zM0 156h4v4H0zm14 0h4v4h-4zm14 0h4v4h-4z"></path>
      </g>
    </g>
  </symbol>
  <symbol xmlns="http://www.w3.org/2000/svg" viewBox="0 0 128 64" id="pattern-illustrations">
    <g fill="none" fill-rule="evenodd">
      <g transform="translate(64)">
        <circle stroke="#FFF7F0" stroke-width="4" cx="48" cy="16" r="14"></circle>
        <path fill="#755CDE" d="M0 0h32v32H0z"></path>
        <g fill="#030303">
          <path d="M32 32h4v4h-4zm14 0h4v4h-4zm14 0h4v4h-4zM32 46h4v4h-4zm14 0h4v4h-4zm14 0h4v4h-4zM32 60h4v4h-4zm14 0h4v4h-4zm14 0h4v4h-4z"></path>
        </g>
        <path fill="#F39E9E" d="m0 32 32 32V32z"></path>
      </g>
      <g fill="#030303">
        <path d="M32 32h4v4h-4zm14 0h4v4h-4zm14 0h4v4h-4zM32 56h4v4h-4zm14 0h4v4h-4zm14 0h4v4h-4zM32 60h4v4h-4zm14 0h4v4h-4zm14 0h4v4h-4z"></path>
      </g>
      <g fill="#030303">
        <path d="M32 0h4v4h-4zm14 0h4v4h-4zm14 0h4v4h-4zM32 4h4v4h-4zm14 0h4v4h-4zm14 0h4v4h-4zM32 28h4v4h-4zm14 0h4v4h-4zm14 0h4v4h-4z"></path>
      </g>
      <path fill="#61C4B7" d="m0 32 32 32V32z"></path>
      <path fill="#FFF7F0" d="M32 0 0 32V0z"></path>
    </g>
  </symbol>
  <symbol xmlns="http://www.w3.org/2000/svg" viewBox="0 0 128 64" id="pattern-motion-graphics">
    <g fill="none" fill-rule="evenodd">
      <circle stroke="#F39E9E" stroke-width="4" cx="80" cy="16" r="14"></circle>
      <circle stroke-opacity=".5" stroke="#F39E9E" stroke-width="4" cx="48" cy="16" r="14"></circle>
      <circle stroke-opacity=".25" stroke="#F39E9E" stroke-width="4" cx="16" cy="16" r="14"></circle>
      <circle stroke="#FFF7F0" stroke-width="4" cx="112" cy="16" r="14"></circle>
      <path fill="#F39E9E" d="M128 64 96 32v32z"></path>
      <rect fill="#F6A560" x="32" y="32" width="64" height="32" rx="16"></rect>
      <path d="M0 50v-4h8v4H0Zm28 0v-4h8v4h-8Zm28 0v-4h8v4h-8Z" fill="#FFF7F0"></path>
    </g>
  </symbol>
  <symbol xmlns="http://www.w3.org/2000/svg" viewBox="0 0 160 64" id="pattern-photography">
    <g fill="none" fill-rule="evenodd">
      <path fill="#EB7565" d="M32 0h64v64H32z"></path>
      <circle stroke="#030303" stroke-width="4" cx="16" cy="16" r="14"></circle>
      <circle stroke="#FFF7F0" stroke-width="4" cx="64" cy="32" r="14"></circle>
      <g fill="#030303">
        <path d="M128 32h4v4h-4zm14 0h4v4h-4zm14 0h4v4h-4zm-28 24h4v4h-4zm14 0h4v4h-4zm14 0h4v4h-4zM128 60h4v4h-4zm14 0h4v4h-4zm14 0h4v4h-4z"></path>
      </g>
      <g fill="#030303">
        <path d="M128 0h4v4h-4zm14 0h4v4h-4zm14 0h4v4h-4zm-28 4h4v4h-4zm14 0h4v4h-4zm14 0h4v4h-4zM128 28h4v4h-4zm14 0h4v4h-4zm14 0h4v4h-4z"></path>
      </g>
      <path fill="#FFF7F0" d="m96 32 32 32V32z"></path>
      <path fill="#552049" d="m96 32 32 32V32z"></path>
      <path fill="#F39E9E" d="M32 64 0 32v32z"></path>
      <path fill="#FFF7F0" d="m96 32 32-32v32z"></path>
    </g>
  </symbol>
  <symbol xmlns="http://www.w3.org/2000/svg" viewBox="0 0 64 64" id="pattern-ui-ux">
    <g fill="none" fill-rule="evenodd">
      <circle stroke="#030303" stroke-width="4" cx="48" cy="16" r="14"></circle>
      <path fill="#EB7565" d="M0 0h32v32H0z"></path>
      <g fill="#030303">
        <path d="M0 32h4v4H0zm14 0h4v4h-4zm14 0h4v4h-4zM0 46h4v4H0zm14 0h4v4h-4zm14 0h4v4h-4zM0 60h4v4H0zm14 0h4v4h-4zm14 0h4v4h-4z"></path>
      </g>
      <path fill="#FFF7F0" d="m32 32 32 32V32z"></path>
    </g>
  </symbol>
</svg>
