<svg width="0" height="0" class="hidden">
  <symbol xmlns="http://www.w3.org/2000/svg" viewBox="0 0 86 86" id="icon-affordable-prices">
    <g fill="none" fill-rule="evenodd">
      <circle cx="43" cy="43" r="43" fill="#96A9C6"></circle>
      <path fill="#FFF" fill-rule="nonzero" d="M43 27a16 16 0 1 0 0 32 16 16 0 0 0 0-32zm4.36 22.18a5.08 5.08 0 0 1-3.4 1.56V53h-1.9v-2.25c-2.48-.26-4.01-1.7-4.6-4.32l2.93-.77c.27 1.65 1.17 2.48 2.7 2.48.7 0 1.23-.18 1.57-.53a1.79 1.79 0 0 0 .5-1.28c0-.52-.17-.91-.5-1.18a9.13 9.13 0 0 0-2.24-1.01 13.22 13.22 0 0 1-2.45-1.07 4.03 4.03 0 0 1-1.42-1.48 4.93 4.93 0 0 1 .43-5.21c.65-.9 1.68-1.44 3.08-1.63V33h1.9v1.75c2.11.25 3.48 1.45 4.1 3.6l-2.6 1.06c-.51-1.47-1.3-2.2-2.37-2.2-.53 0-.96.16-1.28.5a1.64 1.64 0 0 0-.49 1.18c0 .48.16.85.47 1.1.31.26.98.57 2 .95 1.13.4 2.01.8 2.65 1.16a4.16 4.16 0 0 1 1.53 1.51c.38.65.58 1.4.58 2.26 0 1.33-.4 2.43-1.19 3.3z"></path>
    </g>
  </symbol>
  <symbol xmlns="http://www.w3.org/2000/svg" viewBox="0 0 32 32" id="icon-close">
    <g fill="none" fill-rule="evenodd">
      <path fill="#FFF" stroke="#2C2830" stroke-width="1.5" d="M.75.75h30.5v30.5H.75z"></path>
      <g fill="#2C2830">
        <path d="M10.873 9.563l11.314 11.314-1.06 1.06L9.813 10.623z"></path>
        <path d="M9.813 20.877L21.127 9.563l1.06 1.06-11.314 11.314z"></path>
      </g>
    </g>
  </symbol>
  <symbol xmlns="http://www.w3.org/2000/svg" viewBox="0 0 24 24" id="icon-facebook">
    <path d="M22.675 0H1.325C.593 0 0 .593 0 1.325v21.351C0 23.407.593 24 1.325 24H12.82v-9.294H9.692v-3.622h3.128V8.413c0-3.1 1.893-4.788 4.659-4.788 1.325 0 2.463.099 2.795.143v3.24l-1.918.001c-1.504 0-1.795.715-1.795 1.763v2.313h3.587l-.467 3.622h-3.12V24h6.116c.73 0 1.323-.593 1.323-1.325V1.325C24 .593 23.407 0 22.675 0z"></path>
  </symbol>
  <symbol xmlns="http://www.w3.org/2000/svg" viewBox="0 0 32 32" id="icon-hamburger">
    <g fill="none" fill-rule="evenodd">
      <path fill="#FFF" stroke="#2C2830" stroke-width="1.5" d="M.75.75h30.5v30.5H.75z"></path>
      <g fill="#2C2830">
        <path d="M8 10h16v1.5H8zM8 15h16v1.5H8zM8 20h16v1.5H8z"></path>
      </g>
    </g>
  </symbol>
  <symbol xmlns="http://www.w3.org/2000/svg" viewBox="0 0 24 24" id="icon-instagram">
    <path d="M12 2.163c3.204 0 3.584.012 4.85.07 3.252.148 4.771 1.691 4.919 4.919.058 1.265.069 1.645.069 4.849 0 3.205-.012 3.584-.069 4.849-.149 3.225-1.664 4.771-4.919 4.919-1.266.058-1.644.07-4.85.07-3.204 0-3.584-.012-4.849-.07-3.26-.149-4.771-1.699-4.919-4.92-.058-1.265-.07-1.644-.07-4.849 0-3.204.013-3.583.07-4.849.149-3.227 1.664-4.771 4.919-4.919 1.266-.057 1.645-.069 4.849-.069zM12 0C8.741 0 8.333.014 7.053.072 2.695.272.273 2.69.073 7.052.014 8.333 0 8.741 0 12c0 3.259.014 3.668.072 4.948.2 4.358 2.618 6.78 6.98 6.98C8.333 23.986 8.741 24 12 24c3.259 0 3.668-.014 4.948-.072 4.354-.2 6.782-2.618 6.979-6.98.059-1.28.073-1.689.073-4.948 0-3.259-.014-3.667-.072-4.947-.196-4.354-2.617-6.78-6.979-6.98C15.668.014 15.259 0 12 0zm0 5.838a6.162 6.162 0 100 12.324 6.162 6.162 0 000-12.324zM12 16a4 4 0 110-8 4 4 0 010 8zm6.406-11.845a1.44 1.44 0 100 2.881 1.44 1.44 0 000-2.881z"></path>
  </symbol>
  <symbol xmlns="http://www.w3.org/2000/svg" viewBox="0 0 86 86" id="icon-people-first">
    <g fill="none" fill-rule="evenodd">
      <circle cx="43" cy="43" r="43" fill="#96A9C6"></circle>
      <path fill="#FFF" fill-rule="nonzero" d="m52.87 49.87-5.1-2.54a1.4 1.4 0 0 1-.77-1.26v-1.8l.38-.52c.66-.93 1.2-1.97 1.58-3.09a2.12 2.12 0 0 0 1.24-1.93V36.6c0-.51-.2-1.01-.53-1.4v-2.84c.03-.29.14-2.04-1.12-3.48-1.1-1.25-2.87-1.88-5.28-1.88-2.42 0-4.2.63-5.29 1.88a4.78 4.78 0 0 0-1.11 3.48v2.84a2.13 2.13 0 0 0-.54 1.4v2.13c0 .65.3 1.26.8 1.66.49 1.94 1.51 3.4 1.87 3.86v1.77c0 .51-.28.99-.73 1.23l-4.76 2.6A4.81 4.81 0 0 0 31 54.07v1.73c0 2.53 8.02 3.2 12.27 3.2 4.24 0 12.26-.67 12.26-3.2v-1.62a4.79 4.79 0 0 0-2.66-4.3z"></path>
    </g>
  </symbol>
  <symbol xmlns="http://www.w3.org/2000/svg" viewBox="0 0 24 24" id="icon-pinterest">
    <path d="M12 0a12 12 0 0 0-4.37 23.17c-.1-.95-.2-2.4.04-3.44l1.4-5.96s-.35-.72-.35-1.78c0-1.67.96-2.92 2.17-2.92 1.02 0 1.52.77 1.52 1.7 0 1.02-.66 2.56-1 3.99-.28 1.2.6 2.17 1.78 2.17 2.13 0 3.77-2.25 3.77-5.5 0-2.87-2.06-4.88-5.01-4.88a5.2 5.2 0 0 0-5.42 5.2c0 1.04.4 2.14.9 2.74a.36.36 0 0 1 .08.35l-.34 1.36c-.05.22-.17.27-.4.16-1.5-.7-2.43-2.89-2.43-4.65 0-3.78 2.75-7.26 7.92-7.26 4.17 0 7.4 2.97 7.4 6.93 0 4.14-2.6 7.46-6.22 7.46-1.22 0-2.36-.63-2.75-1.37l-.75 2.85c-.27 1.04-1 2.35-1.5 3.15A12.03 12.03 0 0 0 24 12 12 12 0 0 0 12 0z"></path>
  </symbol>
  <symbol xmlns="http://www.w3.org/2000/svg" viewBox="0 0 86 86" id="icon-snappy-process">
    <g fill="none" fill-rule="evenodd">
      <circle cx="43" cy="43" r="43" fill="#96A9C6"></circle>
      <path fill="#FFF" fill-rule="nonzero" d="M32 59h1.2l21.07-20.15c.27-.35.12-.53-.46-.53h-8.7l9.16-10.79c.27-.35.06-.53-.61-.53H41.99c-.34 0-.62.12-.9.36L32.6 42c-.07.36.11.54.57.54h8.43L32 59z"></path>
    </g>
  </symbol>
  <symbol xmlns="http://www.w3.org/2000/svg" viewBox="0 0 24 20" id="icon-twitter">
    <path d="M24 2.557a9.83 9.83 0 01-2.828.775A4.932 4.932 0 0023.337.608a9.864 9.864 0 01-3.127 1.195A4.916 4.916 0 0016.616.248c-3.179 0-5.515 2.966-4.797 6.045A13.978 13.978 0 011.671 1.149a4.93 4.93 0 001.523 6.574 4.903 4.903 0 01-2.229-.616c-.054 2.281 1.581 4.415 3.949 4.89a4.935 4.935 0 01-2.224.084 4.928 4.928 0 004.6 3.419A9.9 9.9 0 010 17.54a13.94 13.94 0 007.548 2.212c9.142 0 14.307-7.721 13.995-14.646A10.025 10.025 0 0024 2.557z"></path>
  </symbol>
  <symbol xmlns="http://www.w3.org/2000/svg" viewBox="0 0 112 18" id="logo">
    <path fill="#2C2830" d="M0 .22h3.58v17.53H0V.22zm8.09 0h3.55l10.92 5.72V.22h3.56v17.53h-3.56V9.71L11.64 4.03v13.72H8.1V.22zm23.8 12.32c.64.36 1.29.68 1.94.97a15.6 15.6 0 0 0 4.25 1.18 18.6 18.6 0 0 0 5.16-.05 6.57 6.57 0 0 0 1.82-.57c.46-.24.8-.53 1.02-.87a2 2 0 0 0 .32-1.1c0-.63-.27-1.14-.8-1.5a4.34 4.34 0 0 0-2.46-.56c-.48 0-1 .03-1.53.1l-.81.1-.82.1a97.03 97.03 0 0 1-1.63.2c-.54.07-1.04.1-1.5.1a8.3 8.3 0 0 1-2.27-.3 5.98 5.98 0 0 1-1.92-.9 4.5 4.5 0 0 1-1.33-1.52c-.32-.6-.49-1.31-.49-2.12 0-.48.07-.95.2-1.43.13-.47.34-.92.63-1.35.28-.43.66-.83 1.11-1.2a6.68 6.68 0 0 1 1.66-.96c.64-.27 1.39-.48 2.24-.63.85-.15 1.81-.23 2.9-.23a21.92 21.92 0 0 1 4.68.5 22.05 22.05 0 0 1 4.11 1.3l-1.56 2.87a16.69 16.69 0 0 0-1.6-.6 18.79 18.79 0 0 0-1.77-.48 20.43 20.43 0 0 0-1.93-.32 17.17 17.17 0 0 0-2.02-.12c-.98 0-1.79.07-2.42.21-.63.15-1.13.33-1.5.55a2 2 0 0 0-.79.74 1.71 1.71 0 0 0-.22.81c0 .53.24.95.71 1.29.47.33 1.19.5 2.15.5.4 0 .84-.03 1.34-.09l.78-.09.82-.1a72.22 72.22 0 0 1 1.7-.18c.58-.05 1.14-.08 1.69-.08 1.03 0 1.95.11 2.74.34.8.24 1.47.57 2 1 .54.43.95.95 1.23 1.56.27.6.41 1.29.41 2.04a5.2 5.2 0 0 1-.7 2.7 5.93 5.93 0 0 1-2 2c-.86.54-1.9.95-3.12 1.23a18.2 18.2 0 0 1-4.07.42c-.99 0-1.95-.06-2.9-.18a21.57 21.57 0 0 1-2.7-.53 20.3 20.3 0 0 1-2.47-.82A18 18 0 0 1 30 15.42l1.9-2.88zM53.4.22h3.55v9.66c0 .8.1 1.5.32 2.11a4.05 4.05 0 0 0 2.57 2.54c.64.22 1.38.33 2.22.33a6.8 6.8 0 0 0 2.22-.33 4.06 4.06 0 0 0 2.57-2.54c.22-.61.32-1.32.32-2.11V.22h3.56v10.09c0 1.15-.2 2.2-.58 3.14a6.67 6.67 0 0 1-1.7 2.42 7.66 7.66 0 0 1-2.72 1.56c-1.07.36-2.3.55-3.67.55s-2.6-.19-3.67-.55a7.68 7.68 0 0 1-2.72-1.56 6.67 6.67 0 0 1-1.7-2.42 8.18 8.18 0 0 1-.58-3.14V.22zm21.66 0h8.92c1.34 0 2.5.14 3.5.42.98.29 1.8.7 2.45 1.22a4.9 4.9 0 0 1 1.45 1.94c.32.76.48 1.63.48 2.6 0 .64-.08 1.26-.24 1.85a5.51 5.51 0 0 1-.72 1.62 5.53 5.53 0 0 1-1.23 1.32 6.68 6.68 0 0 1-1.74.96l3.82 5.6h-4.35l-3.3-4.98H78.6v4.98h-3.56V.22zm9 9.47c.68 0 1.27-.08 1.77-.24.5-.15.93-.37 1.27-.66.34-.28.6-.63.76-1.03a3.54 3.54 0 0 0 .25-1.37c0-.98-.33-1.73-1-2.27-.68-.53-1.7-.8-3.04-.8H78.6v6.37h5.45zm12-9.47h14.93v3.12H99.61v3.5h10.07v2.93H99.61v4.88h11.6v3.1H96.07V.22z"></path>
  </symbol>
</svg>
