<svg xmlns="http://www.w3.org/2000/svg" xmlns:xlink="http://www.w3.org/1999/xlink" width="1271" height="1034"><defs><linearGradient id="c" x1="0%" x2="99.58%" y1="36.15%" y2="63.74%"><stop offset="0%" stop-color="#33D35E"/><stop offset="100%" stop-color="#2AB6D9"/></linearGradient><filter id="a" width="104.9%" height="135.9%" x="-4.8%" y="-17.6%" filterUnits="objectBoundingBox"><feOffset dy="2" in="SourceAlpha" result="shadowOffsetOuter1"/><feGaussianBlur in="shadowOffsetOuter1" result="shadowBlurOuter1" stdDeviation="38.5"/><feColorMatrix in="shadowBlurOuter1" values="0 0 0 0 0 0 0 0 0 0 0 0 0 0 0 0 0 0 0.0240111451 0"/></filter><path id="b" d="m69.44 572.84 134.29 134.27a100 100 0 0 0 70.7 29.29h70.7a100 100 0 0 1 70.7 29.28l161.05 161.03a100 100 0 0 0 70.7 29.29h388.86a81.41 81.41 0 0 0 81.41-81.41 81.41 81.41 0 0 0-23.85-57.57l-86.39-86.39a30.81 30.81 0 0 1 0-43.57 30.81 30.81 0 0 1 21.79-9.03 30.81 30.81 0 0 0 21.78-52.6L855.85 430.11a100 100 0 0 0-70.7-29.29H550.7a100 100 0 0 1-70.7-29.28l-35.26-35.25a100 100 0 0 0-70.7-29.29H138.87a57.52 57.52 0 0 0-57.52 57.52A57.52 57.52 0 0 0 98.2 405.2l28.76 28.76a40.68 40.68 0 0 1 0 57.52 40.68 40.68 0 0 1-28.76 11.92 40.68 40.68 0 0 0-40.68 40.68 40.68 40.68 0 0 0 11.91 28.76z"/></defs><g fill="none" fill-rule="evenodd" transform="translate(15)"><use fill="#000" filter="url(#a)" xlink:href="#b"/><use fill="#2D314D" xlink:href="#b"/><path fill="url(#c)" d="m207.44 265.84 134.29 134.27a100 100 0 0 0 70.7 29.29h70.7a100 100 0 0 1 70.7 29.29L714.89 619.7a100 100 0 0 0 70.7 29.29h388.86a81.41 81.41 0 0 0 81.41-81.41 81.41 81.41 0 0 0-23.85-57.57l-86.39-86.39a30.81 30.81 0 0 1 0-43.57 30.81 30.81 0 0 1 21.79-9.03 30.81 30.81 0 0 0 21.78-52.6L993.85 123.11a100 100 0 0 0-70.7-29.29H688.7A100 100 0 0 1 618 64.54l-35.26-35.25A100 100 0 0 0 512.04 0H276.87a57.52 57.52 0 0 0-57.52 57.52A57.52 57.52 0 0 0 236.2 98.2l28.76 28.76a40.68 40.68 0 0 1 0 57.52 40.68 40.68 0 0 1-28.76 11.92 40.68 40.68 0 0 0-40.68 40.67 40.68 40.68 0 0 0 11.91 28.77z"/></g></svg>