<svg xmlns="http://www.w3.org/2000/svg" xmlns:xlink="http://www.w3.org/1999/xlink" width="375" height="423"><defs><linearGradient id="c" x1="0%" x2="99.58%" y1="36.14%" y2="63.74%"><stop offset="0%" stop-color="#33D35E"/><stop offset="100%" stop-color="#2AB6D9"/></linearGradient><filter id="a" width="116.9%" height="158.7%" x="-10.8%" y="-28.8%" filterUnits="objectBoundingBox"><feOffset dy="2" in="SourceAlpha" result="shadowOffsetOuter1"/><feGaussianBlur in="shadowOffsetOuter1" result="shadowBlurOuter1" stdDeviation="38.5"/><feColorMatrix in="shadowBlurOuter1" values="0 0 0 0 0 0 0 0 0 0 0 0 0 0 0 0 0 0 0.0240111451 0"/></filter><path id="b" d="m42.46 162.61 70.74 70.76a100 100 0 0 0 70.72 29.3h11.03a100 100 0 0 1 70.72 29.3l75.72 75.73a100 100 0 0 0 70.72 29.3h221.67a49.8 49.8 0 0 0 49.8-49.8A49.8 49.8 0 0 0 669 311.98l-52.83-52.85a18.85 18.85 0 0 1 0-26.65 18.85 18.85 0 0 1 13.32-5.52 18.85 18.85 0 0 0 13.33-32.17L534.75 86.7a100 100 0 0 0-70.72-29.3H352a97.95 97.95 0 0 1-69.26-28.7A97.95 97.95 0 0 0 213.48 0H84.94a35.19 35.19 0 0 0-35.19 35.19 35.19 35.19 0 0 0 10.3 24.88l17.6 17.6a24.88 24.88 0 0 1 0 35.18 24.88 24.88 0 0 1-17.6 7.29 24.88 24.88 0 0 0-24.87 24.88 24.88 24.88 0 0 0 7.28 17.59z"/></defs><g fill="none" fill-rule="evenodd" transform="translate(-94 -52)"><use fill="#000" filter="url(#a)" xlink:href="#b"/><use fill="#2D314D" xlink:href="#b"/><path fill="url(#c)" d="m256.46 163.61 70.74 70.76a100 100 0 0 0 70.72 29.3h11.03a100 100 0 0 1 70.72 29.3l75.72 75.73a100 100 0 0 0 70.72 29.3h221.67a49.8 49.8 0 0 0 49.8-49.8A49.8 49.8 0 0 0 883 312.98l-52.83-52.85a18.85 18.85 0 0 1 0-26.65 18.85 18.85 0 0 1 13.32-5.52 18.85 18.85 0 0 0 13.33-32.17L748.75 87.7a100 100 0 0 0-70.72-29.3H566a97.95 97.95 0 0 1-69.26-28.7A97.95 97.95 0 0 0 427.48 1H298.94a35.19 35.19 0 0 0-35.19 35.19 35.19 35.19 0 0 0 10.3 24.88l17.6 17.6a24.88 24.88 0 0 1 0 35.18 24.88 24.88 0 0 1-17.6 7.29 24.88 24.88 0 0 0-24.88 24.88 24.88 24.88 0 0 0 7.29 17.59z"/></g></svg>