<svg xmlns="http://www.w3.org/2000/svg" width="72" height="72"><path fill="#FFF" fill-rule="nonzero" d="M45.98 16a3.34 3.34 0 0 1 3.34 3.33v3.73l4.1 4.12a8.72 8.72 0 0 1 2.56 6.14v22a.67.67 0 0 1-.67.66H43.32a.67.67 0 0 1-.67-.67v-6.47l-.38-.61a9.63 9.63 0 0 1-.83-8.55L25.8 45.7a3.33 3.33 0 0 1-4.3-1.91l-2.51-6.5a3.33 3.33 0 0 1-2.99-3.3V19.33A3.34 3.34 0 0 1 19.33 16zm8.67 33.32H43.99v5.33h10.66v-5.33zm-8 1.33v1.33h-1.33v-1.33h1.33zm3.67-24.7 2.26 5.86a3.33 3.33 0 0 1-1.91 4.3l-.68.27 2.46 2.47-.94.94-10.62-10.61a2.22 2.22 0 0 0-3.2 3.07l5.45 5.96c.2.21.23.53.1.78a8.3 8.3 0 0 0 .16 8.53l.29.46h10.96V33.32a7.38 7.38 0 0 0-2.17-5.2l-2.16-2.16zm-9.8 11.37H29.57l-7.95 3.07 1.13 2.92a2 2 0 0 0 2.58 1.15l16.07-6.2-.86-.94zm-14.65 0h-5.44l.7 1.83 4.74-1.83zm20.11-19.99H19.33a2 2 0 0 0-2 2V34a2 2 0 0 0 2 2h19.98l-2.6-2.84a3.56 3.56 0 0 1 5.12-4.92l6.1 6.1c.03-.1.05-.22.05-.34V19.33a2 2 0 0 0-2-2zm3.34 9.71V34a3.33 3.33 0 0 1-.29 1.33l1.16-.44a2 2 0 0 0 1.15-2.59l-2.02-5.25zM22 31.32v1.34h-2.67v-1.34H22zm11.99 0v1.34h-2.67v-1.34H34zm-12-4v1.34h-2.66v-1.33H22zm4 0v1.34h-2.66v-1.33h2.66zm4 0v1.34h-2.66v-1.33h2.66zm4 0v1.34h-2.67v-1.33H34zm-10.4-8.66c.96 0 1.74.78 1.74 1.74v3.2c0 .95-.78 1.73-1.73 1.73h-3.2a1.73 1.73 0 0 1-1.74-1.73v-3.2c0-.96.78-1.74 1.74-1.74zm0 1.34h-3.2a.4.4 0 0 0-.4.4v.93h1.34v1.33H20v.94c0 .22.18.4.4.4h3.2a.4.4 0 0 0 .4-.4v-.94h-1.34v-1.33H24v-.93a.4.4 0 0 0-.4-.4zm21.73-.67v2h-1.34v-2h1.34zm-2.67 0v2h-1.33v-2h1.33zm-2.66 0v2h-1.34v-2H40zm-2.67 0v2H36v-2h1.33z"/></svg>