<svg xmlns="http://www.w3.org/2000/svg" width="72" height="72"><path fill="#FFF" fill-rule="nonzero" d="M26.12 28.34a.59.59 0 1 1 1.13.3c-.04.15-.06.3-.06.47V42.9c0 1.06.86 1.92 1.92 1.92H42.9c.16 0 .32-.02.48-.06a.59.59 0 1 1 .3 1.13 3.1 3.1 0 0 1-.78.1h-1.3v1.77c0 .34.14.67.39.91l3.85 3.86a1.84 1.84 0 0 1 2.12.34 1.84 1.84 0 0 1 0 2.6 1.83 1.83 0 0 1-2.6 0 1.84 1.84 0 0 1-.35-2.11l-3.85-3.86a2.45 2.45 0 0 1-.72-1.74v-1.77h-1.34v2.54a.59.59 0 0 1-1.17 0v-2.54h-1.33v9.43a.59.59 0 0 1-1.17 0v-9.43h-1.34v2.54a.59.59 0 0 1-1.17 0v-2.54h-1.33v5.19a1.84 1.84 0 0 1 1.25 1.74 1.84 1.84 0 0 1-1.84 1.84 1.84 1.84 0 0 1-1.84-1.84c0-.81.53-1.5 1.26-1.74v-5.19h-1.3a3.1 3.1 0 0 1-3.09-3.1V41.6h-1.77c-.34 0-.67.13-.91.37l-3.85 3.86a1.83 1.83 0 0 1-.35 2.12 1.83 1.83 0 0 1-1.3.53c-.5 0-.95-.19-1.3-.53a1.83 1.83 0 0 1-.54-1.3c0-.5.2-.96.54-1.3a1.83 1.83 0 0 1 1.3-.54c.29 0 .57.06.82.19l3.85-3.85a2.45 2.45 0 0 1 1.74-.73h1.77V39.1h-2.54a.59.59 0 0 1 0-1.17h2.54v-1.33H16.6a.59.59 0 0 1 0-1.18h9.43v-1.33h-2.54a.59.59 0 0 1 0-1.17h2.54v-1.33h-5.19a1.84 1.84 0 0 1-1.74 1.25 1.84 1.84 0 0 1-1.84-1.84 1.84 1.84 0 0 1 1.84-1.84c.81 0 1.5.53 1.74 1.25h5.2v-1.29c0-.26.02-.52.09-.77zm20.53 25.15a.67.67 0 0 0-.47 1.14.67.67 0 1 0 .47-1.14zm-15.66-1.25a.67.67 0 1 0 0 1.34.67.67 0 0 0 0-1.34zm-13.15-6.26a.66.66 0 0 0-.47.2.66.66 0 0 0-.2.47.66.66 0 0 0 .67.66.66.66 0 0 0 .67-.66.66.66 0 0 0-.2-.47.66.66 0 0 0-.47-.2zM36 16c.32 0 .59.26.59.59v9.43h1.33v-2.55a.59.59 0 0 1 1.17 0v2.55h1.33v-5.19a1.84 1.84 0 0 1-1.25-1.74 1.84 1.84 0 0 1 1.84-1.84 1.84 1.84 0 0 1 1.84 1.84c0 .81-.53 1.5-1.25 1.74v5.19h1.29a3.1 3.1 0 0 1 3.09 3.1v1.28h1.77c.34 0 .67-.13.91-.38l3.85-3.85a1.83 1.83 0 0 1-.19-.82c0-.49.2-.95.54-1.3a1.83 1.83 0 0 1 1.3-.54A1.83 1.83 0 0 1 56 25.35c0 .5-.2.96-.54 1.3a1.83 1.83 0 0 1-1.3.54 1.83 1.83 0 0 1-.82-.19l-3.85 3.85a2.45 2.45 0 0 1-1.74.73h-1.77v1.33h2.54a.59.59 0 0 1 0 1.17h-2.54v1.33h9.43a.59.59 0 1 1 0 1.18h-9.43v1.33h2.54a.59.59 0 0 1 0 1.17h-2.54v1.33h5.19a1.84 1.84 0 0 1 1.74-1.25 1.84 1.84 0 0 1 1.84 1.84 1.84 1.84 0 0 1-1.84 1.84 1.84 1.84 0 0 1-1.74-1.25h-5.19v1.29a3.1 3.1 0 0 1-.1.77.59.59 0 1 1-1.13-.3c.04-.15.06-.3.06-.47V29.1c0-1.06-.86-1.92-1.92-1.92H29.1c-.16 0-.32.02-.48.06a.59.59 0 1 1-.29-1.13c.25-.07.51-.1.77-.1h1.3v-1.77c0-.34-.14-.67-.38-.91l-3.86-3.86a1.84 1.84 0 0 1-2.12-.34 1.84 1.84 0 0 1 0-2.6 1.84 1.84 0 0 1 2.6 0 1.84 1.84 0 0 1 .35 2.11l3.85 3.86c.47.46.73 1.08.73 1.74v1.77h1.33v-2.55a.59.59 0 0 1 1.17 0v2.55h1.33v-9.44c0-.32.27-.58.6-.58zm1.76 13.15c1.3 0 2.35.97 2.35 2.15a2 2 0 0 1-.06.48 2.83 2.83 0 0 1 2.17 2.66c0 .7-.3 1.37-.81 1.87.51.51.81 1.18.81 1.88 0 .96-.54 1.84-1.41 2.35-.09 1.28-1.26 2.3-2.7 2.3a2.8 2.8 0 0 1-2.11-.93 2.8 2.8 0 0 1-2.11.94c-1.5 0-2.7-1.1-2.7-2.47a3.02 3.02 0 0 1-1.41-2.5c0-.66.22-1.27.62-1.78a2.57 2.57 0 0 1-.62-1.67c0-1.25.91-2.31 2.17-2.66a2 2 0 0 1-.06-.47c0-1.18 1.05-2.15 2.35-2.15.7 0 1.33.29 1.76.73a2.44 2.44 0 0 1 1.76-.73zm0 1.17c-.65 0-1.17.44-1.17.98a.59.59 0 0 1-1.18 0c0-.54-.52-.98-1.17-.98-.65 0-1.18.44-1.18.98a.87.87 0 0 0 .22.57l.03.03v.01l.02.03a.59.59 0 0 1-.5.89h-.01c-1.03 0-1.87.72-1.87 1.6 0 .32.11.63.32.89a3.57 3.57 0 0 1 1.07-.44.59.59 0 0 1 .27 1.14c-.98.23-1.66 1-1.66 1.86 0 .48.22.94.59 1.3.1-.17.22-.32.36-.46a.59.59 0 1 1 .82.83c-.23.23-.36.53-.36.83 0 .72.68 1.3 1.53 1.3.84 0 1.52-.58 1.52-1.3v-1.25c0-.54-.4-1.02-1-1.21a.59.59 0 0 1 .36-1.12c.23.07.45.17.64.3v-3.25a.59.59 0 0 1 1.18 0v.74c.43-.27.96-.43 1.52-.43a.59.59 0 0 1 0 1.17c-.84 0-1.52.58-1.52 1.3v3.75c0 .72.68 1.3 1.52 1.3.85 0 1.53-.58 1.53-1.3 0-.53-.4-1.02-1-1.21a.59.59 0 1 1 .35-1.12 2.63 2.63 0 0 1 1.54 1.24c.33-.3.52-.69.52-1.1 0-.55-.34-1.06-.9-1.36a.59.59 0 0 1 0-1.04c.56-.3.9-.8.9-1.36 0-.88-.83-1.6-1.86-1.6h-.03a2.12 2.12 0 0 0-.82.16.59.59 0 1 1-.45-1.08c.3-.13.62-.2.96-.24a.82.82 0 0 0 .09-.37c0-.54-.53-.98-1.18-.98zm15.15 10.02a.67.67 0 1 0 0 1.34.67.67 0 0 0 0-1.34zM19.09 30.32a.67.67 0 1 0 0 1.34.67.67 0 0 0 0-1.34zm35.07-5.63a.66.66 0 0 0-.47.2.66.66 0 0 0-.2.46.66.66 0 0 0 .67.67c.18 0 .35-.07.47-.2a.66.66 0 0 0 .2-.47.66.66 0 0 0-.2-.47.66.66 0 0 0-.47-.2zm-13.15-6.27a.67.67 0 1 0 0 1.34.67.67 0 0 0 0-1.34zm-15.66-1.25a.67.67 0 1 0 0 1.34.67.67 0 0 0 0-1.34z"/></svg>