<svg xmlns="http://www.w3.org/2000/svg" width="72" height="72"><path fill="#FFF" fill-rule="nonzero" d="M44.63 16a3.1 3.1 0 0 1 3.1 3.1v7.56c5.23.29 9.39 4.37 9.39 9.34s-4.16 9.05-9.4 9.34v7.57A3.1 3.1 0 0 1 44.64 56H27.1a3.1 3.1 0 0 1-3.1-3.1v-7.23a.59.59 0 1 1 1.18 0v3.52h21.37v-3.85a10.48 10.48 0 0 1-2.89-.57l-4.38 2.4c-.47.24-1.02-.23-.84-.73l1.31-3.6h-6.7a.6.6 0 0 1-.42-.16l-4.7-4.7a.6.6 0 0 1-.17-.41V24.73c0-.33.27-.59.6-.59h15.02c.32 0 .59.26.59.59v2.4a10.5 10.5 0 0 1 2.58-.47v-4.48H25.18v20.7a.59.59 0 1 1-1.17 0V19.1A3.1 3.1 0 0 1 27.1 16zm1.92 34.36H25.18v2.55a1.92 1.92 0 0 0 1.92 1.92h17.53a1.92 1.92 0 0 0 1.92-1.92v-2.55zm-9.43.7c.32 0 .59.27.59.6v1.87a.59.59 0 0 1-.6.6h-2.5a.59.59 0 0 1-.58-.6v-1.87c0-.33.26-.6.58-.6zm-.59 1.18H35.2v.7h1.33v-.7zm10.6-24.42c-4.85 0-8.8 3.67-8.8 8.18 0 2.22.94 4.3 2.65 5.85.18.16.24.4.16.63l-1.06 2.9 3.25-1.77a.59.59 0 0 1 .5-.03 9.34 9.34 0 0 0 3.3.6c4.86 0 8.81-3.67 8.81-8.18s-3.95-8.18-8.8-8.18zm0 1.33c.33 0 .6.26.6.59v1.29h.04a2.47 2.47 0 0 1 2.46 2.46v.63a.59.59 0 1 1-1.17 0v-.63c0-.7-.58-1.29-1.3-1.29h-.94a1.6 1.6 0 0 0 0 3.21h.63a2.78 2.78 0 0 1 2.78 2.78c0 1.44-1.1 2.63-2.5 2.77v1.3a.59.59 0 1 1-1.18 0v-1.29h-.04a2.47 2.47 0 0 1-2.46-2.47.59.59 0 1 1 1.17 0c0 .72.58 1.3 1.3 1.3h.93a1.6 1.6 0 0 0 0-3.21h-.62a2.78 2.78 0 0 1-2.78-2.78c0-1.44 1.1-2.63 2.5-2.77v-1.3c0-.33.26-.59.59-.59zm-4.34-3.83H28.94v11.66h4.1c.33 0 .6.26.6.59v4.1h5.56a8.9 8.9 0 0 1-1.45-8.84h-6.27a.59.59 0 1 1 0-1.17h6.82c.4-.72.9-1.37 1.47-1.96h-2.02a.59.59 0 1 1 0-1.18h3.13c.07 0 .14.02.2.04.54-.38 1.1-.7 1.71-.98v-2.27zM32.46 38.14h-2.7l2.7 2.7v-2.7zm3.4-3.36a.59.59 0 1 1 0 1.17h-4.38a.59.59 0 1 1 0-1.17zm-.62-6.27a.59.59 0 1 1 0 1.18h-3.76a.59.59 0 1 1 0-1.18zm9.4-11.35H27.1a1.92 1.92 0 0 0-1.92 1.92v1.92h21.37v-1.92a1.92 1.92 0 0 0-1.92-1.92zm-7.52 1.33a.59.59 0 1 1 0 1.18h-2.5a.59.59 0 1 1 0-1.18z"/></svg>