<svg xmlns="http://www.w3.org/2000/svg" width="72" height="72"><path fill="#FFF" fill-rule="nonzero" d="M36 16a4.52 4.52 0 0 1 4.52 4.52 4.51 4.51 0 0 1-1.96 3.7 7.1 7.1 0 0 1 4.54 6.62v3.22h-6.46v.65c0 .36.3.65.65.65h1.29c1.07 0 1.94.86 1.94 1.93v1.29a1.94 1.94 0 0 1-1.94 1.94h-1.15l.69.69-.97 1.59.13.3h6.28a5.15 5.15 0 0 1-1.75-3.87 5.17 5.17 0 0 1 5.16-5.16 5.17 5.17 0 0 1 5.16 5.16 5.15 5.15 0 0 1-1.9 4A7.1 7.1 0 0 1 56 50.19V56H41.16v-7.42a.97.97 0 0 0-.97-.97h-.96v1.15l-1.8.45-.28.64.97 1.59-3.45 3.45-1.6-.96c-.2.1-.42.19-.64.27L32 56h-4.88l-.45-1.8a8.52 8.52 0 0 1-.64-.27l-1.59.96-3.45-3.45.96-1.6a8.63 8.63 0 0 1-.27-.63l-1.8-.45v-4.88l1.8-.44c.08-.22.17-.43.27-.64l-.96-1.6.69-.69h-1.15a1.94 1.94 0 0 1-1.94-1.93v-1.29c0-1.07.87-1.94 1.94-1.94h1.29a.65.65 0 0 0 .64-.64v-.65H16v-3.22c0-3.01 1.89-5.58 4.53-6.61a4.51 4.51 0 0 1-1.95-3.72A4.52 4.52 0 0 1 23.1 16a4.52 4.52 0 0 1 4.51 4.52 4.51 4.51 0 0 1-1.95 3.7 7.13 7.13 0 0 1 3.89 3.68 7.13 7.13 0 0 1 3.89-3.67 4.51 4.51 0 0 1-1.96-3.71A4.52 4.52 0 0 1 36 16zm12.9 28.39H31.8a.97.97 0 0 0 0 1.93h8.4a2.26 2.26 0 0 1 2.25 2.26v6.13h9.03v-7.1h1.3v7.1h1.93v-4.52a5.81 5.81 0 0 0-5.8-5.8zm-17.92-6.46h-2.86l-.37 1.52-.35.1a7.03 7.03 0 0 0-1.11.47l-.32.17-1.34-.8-2.02 2.01.8 1.34-.16.32a7.08 7.08 0 0 0-.47 1.12l-.1.34-1.52.37v2.86l1.51.37.11.35c.12.37.28.74.47 1.11l.17.32-.81 1.34 2.02 2.02 1.34-.8.32.16c.37.2.74.35 1.11.47l.35.1.37 1.52h2.86l.37-1.51.35-.11a7.03 7.03 0 0 0 1.1-.47l.33-.17 1.34.81 2.02-2.02-.81-1.34.17-.32c.19-.37.35-.74.46-1.11l.11-.35 1.52-.37v-.14H35.2a5.81 5.81 0 0 1-5.66 4.52 5.81 5.81 0 0 1-5.8-5.8 5.81 5.81 0 0 1 5.8-5.81c1.93 0 3.74.98 4.81 2.58h1.5l-.01-.04-.17-.32.81-1.34-2.02-2.02-1.34.81-.32-.17a7.08 7.08 0 0 0-1.11-.46l-.35-.11-.37-1.52zm-1.43 3.88a4.52 4.52 0 0 0-4.52 4.51 4.52 4.52 0 0 0 4.52 4.52 4.52 4.52 0 0 0 4.32-3.23H32.5a3.23 3.23 0 1 1-1.7-4.26 2.23 2.23 0 0 1 1-.25h.9a4.53 4.53 0 0 0-3.15-1.3zm0 2.58a1.94 1.94 0 0 0-1.94 1.93 1.94 1.94 0 0 0 3.48 1.17 2.25 2.25 0 0 1-1.54-2.13c0-.34.08-.66.21-.94l-.21-.03zm17.42-9.03a3.88 3.88 0 0 0-3.87 3.87 3.88 3.88 0 0 0 3.87 3.87 3.88 3.88 0 0 0 3.87-3.87 3.88 3.88 0 0 0-3.87-3.87zm-11.61-1.3H23.74v.65a1.94 1.94 0 0 1-1.93 1.94h-1.3a.65.65 0 0 0-.64.64v1.29c0 .36.29.65.65.65h2.44l1.47-1.48 1.6.97c.2-.1.42-.2.63-.27l.45-1.8h4.88l.44 1.8c.22.08.43.17.65.27l1.59-.97 1.47 1.48h2.44a.65.65 0 0 0 .65-.65V37.3a.65.65 0 0 0-.65-.64H37.3a1.94 1.94 0 0 1-1.93-1.94v-.64zM23.1 25.04a5.81 5.81 0 0 0-5.81 5.8v1.94h1.94v-5.16h1.29v5.16h5.16v-5.16h1.29v5.16h1.93v-1.93a5.81 5.81 0 0 0-5.8-5.8zm12.9 0a5.81 5.81 0 0 0-5.8 5.8v1.94h1.93v-5.16h1.29v5.16h5.16v-5.16h1.3v5.16h1.93v-1.93a5.81 5.81 0 0 0-5.81-5.8zm15.48-1.29A4.52 4.52 0 0 1 56 28.26a4.52 4.52 0 0 1-4.52 4.51h-7.1v-4.51a4.52 4.52 0 0 1 4.52-4.52zm0 1.3H48.9a3.23 3.23 0 0 0-3.22 3.22v3.22h5.8a3.23 3.23 0 0 0 3.23-3.22 3.23 3.23 0 0 0-3.23-3.23zm-3.22 3.86v1.3h-1.3v-1.3h1.3zm2.58 0v1.3h-1.3v-1.3h1.3zm2.58 0v1.3h-1.3v-1.3h1.3zm0-2.58v1.3h-6.45v-1.3h6.45zM23.1 17.3a3.23 3.23 0 0 0-3.23 3.23 3.23 3.23 0 0 0 3.23 3.22 3.23 3.23 0 0 0 3.22-3.22 3.23 3.23 0 0 0-3.22-3.23zm12.9 0a3.23 3.23 0 0 0-3.23 3.23A3.23 3.23 0 0 0 36 23.74a3.23 3.23 0 0 0 3.23-3.22A3.23 3.23 0 0 0 36 17.29z"/></svg>