<svg xmlns="http://www.w3.org/2000/svg" width="139" height="20"><defs><linearGradient id="a" x1="72.19%" x2="17.5%" y1="0%" y2="100%"><stop offset="0%" stop-color="#33D35E"/><stop offset="100%" stop-color="#2AB6D9"/></linearGradient></defs><g fill="none" fill-rule="evenodd"><path fill="#fff" fill-rule="nonzero" d="M37.75 15.85a5.99 5.99 0 0 0 5.96-4.22h-3.9c-.38.67-1.14 1.07-2.06 1.07-1.23 0-2.06-.68-2.32-1.98h8.44c.05-.35.08-.7.08-1.04 0-3.33-2.53-5.95-6.2-5.95-3.56 0-6.17 2.57-6.17 6.05a5.96 5.96 0 0 0 6.17 6.07zm2.35-7.3h-4.6c.32-1.13 1.11-1.75 2.25-1.75 1.18 0 2 .61 2.35 1.75zm10.94 7.3c1.32 0 2.5-.44 3.43-1.2l.34.81h3.03V4.1h-2.92l-.4.88a5.4 5.4 0 0 0-3.48-1.22 5.77 5.77 0 0 0-5.96 6.03c0 3.53 2.49 6.07 5.96 6.07zm.53-3.47a2.5 2.5 0 0 1-2.55-2.6 2.5 2.5 0 0 1 2.55-2.58A2.5 2.5 0 0 1 54.1 9.8a2.5 2.5 0 0 1-2.54 2.59zm13.12 3.47c3.02 0 5.03-1.56 5.03-3.93 0-2.89-2.4-3.26-4.19-3.58-1.08-.2-1.95-.34-1.95-.99 0-.53.43-.84 1.05-.84.71 0 1.2.34 1.2 1.07h3.67c-.05-2.3-1.92-3.85-4.82-3.85-2.91 0-4.85 1.47-4.85 3.75 0 2.76 2.33 3.3 4.1 3.58 1.09.18 1.95.36 1.95 1.02 0 .59-.54.88-1.12.88-.74 0-1.32-.38-1.32-1.21h-3.77c.04 2.46 1.92 4.1 5.02 4.1zm8.1 3.85c2.94 0 4.34-1.25 5.88-4.73L83.43 4.1h-4.2l-2.25 6.27-2.42-6.26h-4.25l4.7 10.43c-.53 1.4-.98 1.8-2.48 1.8h-1.08v3.36h1.34zm18.5-3.85c3.5 0 5.98-2.52 5.98-6.05S94.8 3.75 91.3 3.75a5.33 5.33 0 0 0-2.83.78V0H84.6v15.47h2.9l.37-.84c.92.77 2.1 1.22 3.42 1.22zm-.52-3.47a2.5 2.5 0 0 1-2.54-2.58 2.5 2.5 0 0 1 2.54-2.6 2.5 2.5 0 0 1 2.55 2.6 2.5 2.5 0 0 1-2.55 2.58zm13.6 3.47c1.32 0 2.5-.44 3.43-1.2l.34.81h3.02V4.1h-2.91l-.4.88a5.4 5.4 0 0 0-3.48-1.22 5.77 5.77 0 0 0-5.96 6.03c0 3.53 2.48 6.07 5.96 6.07zm.52-3.47a2.5 2.5 0 0 1-2.54-2.6 2.5 2.5 0 0 1 2.54-2.58 2.5 2.5 0 0 1 2.55 2.59 2.5 2.5 0 0 1-2.55 2.59zm12.66 3.1V9.4c0-1.44.7-2.3 1.92-2.3.99 0 1.48.66 1.48 1.98v6.4h3.92V8.53c0-2.9-1.73-4.77-4.37-4.77-1.47 0-2.74.56-3.58 1.5l-.54-1.16h-2.75v11.36h3.92zm13.75 0v-4.81l2.84 4.8h4.62l-3.9-5.95 3.54-5.41H134l-2.7 4.45V0h-3.92v15.47h3.92z"/><g fill="url(#a)"><path d="M10.8 0 0 19.7h5.99L16.79 0z"/><path opacity=".5" d="M18.17 0 7.37 19.7h5.98L24.15 0z"/><path opacity=".15" d="m25.54 0-10.8 19.7h5.98L31.52 0z"/></g></g></svg>