<svg xmlns="http://www.w3.org/2000/svg" width="1440" height="250"><path d="M830-63.48C830 19.35 854.36 78.68 944.73 117c90.37 38.32 177.69 3.35 265.28 23.4 87.59 20.05 87.59 149.2 170.08 228.67 82.48 79.48 256.4 98.78 397.82 18.15 141.41-80.63 205.52-268.9 163.26-379.9-42.25-111-123.23-212.32-513.93-212.32S830-146.31 830-63.48zM-263.35 570.9c29.68 77.33 73.69 123.99 171.79 127.38 98.1 3.39 167.08-60.55 256.04-73.22 88.96-12.68 135.24 107.9 240.73 152.53 105.49 44.64 274.78.33 377.9-125.62 103.13-125.96 95.51-324.69 16.28-413.18-79.23-88.5-191.13-154.06-555.89-14.04s-536.54 268.82-506.85 346.15zM-514-377.5c0 82.84 24.36 142.17 114.73 180.49 90.37 38.32 177.69 3.35 265.28 23.4C-46.4-153.55-46.4-24.4 36.09 55.07c82.48 79.48 256.4 98.78 397.82 18.15 141.41-80.63 205.52-268.9 163.26-379.9C554.92-417.68 473.94-519 83.24-519S-514-460.31-514-377.48z" fill="#4B3F6B" fill-rule="evenodd"/></svg>