<svg xmlns="http://www.w3.org/2000/svg" width="1110" height="168"><path fill="#4B3F6B" fill-rule="evenodd" d="M647-93.92c0 52.72 15.5 90.48 73 114.87 57.5 24.4 113.06 2.14 168.79 14.9C944.52 48.6 944.52 130.8 997 181.4s163.14 62.87 253.12 11.55C1340.1 141.63 1380.88 21.8 1354-48.85 1327.12-119.52 1275.6-184 1027-184s-380 37.35-380 90.08zm-781 213c0 52.72 15.5 90.48 73 114.87 57.5 24.4 113.06 2.14 168.79 14.9C163.52 261.6 163.52 343.8 216 394.4s163.14 62.87 253.12 11.55C559.1 354.63 599.88 234.8 573 164.15 546.12 93.47 494.6 29 246 29s-380 37.35-380 90.08z"/></svg>