<svg xmlns="http://www.w3.org/2000/svg" width="733" height="482"><defs><linearGradient id="a" x1="0%" x2="100%" y1="50%" y2="50%"><stop offset="0%" stop-color="#183866"/><stop offset="100%" stop-color="#1A7FC1"/></linearGradient><linearGradient id="b" x1="-.13%" x2="100%" y1="50.06%" y2="50.06%"><stop offset="0%"/><stop offset="99%" stop-opacity="0"/></linearGradient><linearGradient id="c" x1="176.07%" x2="310.39%" y1="-566.04%" y2="-534.63%"><stop offset="0%"/><stop offset="99%" stop-opacity="0"/></linearGradient><linearGradient id="d" x1="58.93%" x2="52.27%" y1="-258%" y2="-277.34%"><stop offset="0%"/><stop offset="99%" stop-opacity="0"/></linearGradient><linearGradient id="e" x1="156.1%" x2="8.11%" y1="-63.27%" y2="-76.11%"><stop offset="0%"/><stop offset="99%" stop-opacity="0"/></linearGradient><linearGradient id="f" x1="2361.04%" x2="2162.65%" y1="-16584.91%" y2="-16647.55%"><stop offset="0%"/><stop offset="99%" stop-opacity="0"/></linearGradient><linearGradient id="g" x1="241.39%" x2="133.14%" y1="-426.05%" y2="-412.19%"><stop offset="0%"/><stop offset="99%" stop-opacity="0"/></linearGradient><linearGradient id="h" x1="106.85%" x2="-35.82%" y1="22.5%" y2="19.27%"><stop offset="0%"/><stop offset="100%" stop-opacity="0"/></linearGradient><linearGradient id="i" x1="14.17%" x2="114.17%" y1="-41.34%" y2="-41.34%"><stop offset="0%" stop-color="#183866"/><stop offset="100%" stop-color="#1A7FC1"/></linearGradient><linearGradient id="j" x1="40.39%" x2="71.43%" y1="39.52%" y2="67.98%"><stop offset="0%"/><stop offset="99%" stop-opacity="0"/></linearGradient><linearGradient id="k" x1="-12.53%" x2="93.69%" y1="44.92%" y2="53.42%"><stop offset="0%"/><stop offset="99%" stop-opacity="0"/></linearGradient><linearGradient id="l" x1="53.7%" x2="43.72%" y1="42.27%" y2="80.59%"><stop offset="0%"/><stop offset="99%" stop-opacity="0"/></linearGradient><linearGradient id="m" x1="190.93%" x2="102.15%" y1="-333.25%" y2="-335.03%"><stop offset="0%"/><stop offset="99%" stop-opacity="0"/></linearGradient><linearGradient id="n" x1="168.58%" x2="111.53%" y1="-126.25%" y2="-126.94%"><stop offset="0%"/><stop offset="99%" stop-opacity="0"/></linearGradient><linearGradient id="o" x1="56.99%" x2="28.13%" y1="43.62%" y2="69.96%"><stop offset="0%"/><stop offset="99%" stop-opacity="0"/></linearGradient><linearGradient id="p" x1="58.09%" x2="57.21%" y1="-1473.57%" y2="-1370.2%"><stop offset="0%"/><stop offset="99%" stop-opacity="0"/></linearGradient><linearGradient id="q" x1="-.04%" x2="100%" y1="49.99%" y2="49.99%"><stop offset="0%" stop-color="#ECC4D7"/><stop offset="42%" stop-color="#EFD4D1"/><stop offset="100%" stop-color="#F2EAC9"/></linearGradient><linearGradient id="r" x1="99.03%" x2="199.03%" y1="-163.29%" y2="-163.29%"><stop offset="0%" stop-color="#ECC4D7"/><stop offset="42%" stop-color="#EFD4D1"/><stop offset="100%" stop-color="#F2EAC9"/></linearGradient><linearGradient id="s" x1="124.31%" x2="224.31%" y1="-84.56%" y2="-84.56%"><stop offset="0%" stop-color="#ECC4D7"/><stop offset="42%" stop-color="#EFD4D1"/><stop offset="100%" stop-color="#F2EAC9"/></linearGradient><linearGradient id="t" x1="128.89%" x2="24.06%" y1="100.36%" y2="153.09%"><stop offset="0%" stop-color="#362958" stop-opacity=".5"/><stop offset="100%" stop-color="#34313D" stop-opacity="0"/></linearGradient><linearGradient id="u" x1="3990.94%" x2="3874.36%" y1="-34225.19%" y2="-34268.32%"><stop offset="0%"/><stop offset="99%" stop-opacity="0"/></linearGradient></defs><g fill="none"><path fill="#EFF1F7" d="M583.08 92.21c-20.97-22.38-37.2-49.1-62.27-67.37-39.38-28.76-96.05-31.56-142.08-13.5-46.04 18.07-81.91 54.48-105.55 95.7-12.43 21.7-22.2 45.36-40.42 63.09-15.4 14.97-35.65 24.53-54.84 34.94-30.95 16.73-60.76 36.95-80.78 64.7-20.03 27.73-28.98 64.17-16.18 95.44 8.63 21.1 26.02 37.88 43.83 53.08 20.97 17.87 43.5 34.6 69.5 45.25 32.56 13.24 68.7 16.09 104.14 17.44 62.83 2.38 125.75.6 188.32-5.33 51.23-4.84 104-13.1 146.87-39.87 60.04-37.49 91-106.17 97.97-173.51 2.84-26.94 2.12-54.93-8.96-79.92-26.5-59.78-98.02-45.8-139.55-90.14z"/><path fill="#3F3D56" d="M178.32 202.33s-16.6-2.94-21.25 8.67c-4.65 11.62 0 51.74 0 51.74L219 307l-40.68-104.67z"/><path fill="#2BD0D0" d="m256.2 379.73-24.55 7a6.8 6.8 0 0 1-8.38-4.38 6.47 6.47 0 0 1 4.55-8.07l24.53-7.01a6.8 6.8 0 0 1 8.37 4.37 6.47 6.47 0 0 1-4.52 8.09z"/><circle cx="255" cy="395" r="11" fill="#25233A"/><circle cx="253.5" cy="397.5" r="5.5" fill="#3F3D56"/><circle cx="210" cy="384" r="11" fill="#25233A"/><path fill="url(#a)" d="M214 384.5a5.5 5.5 0 1 1-11 0 5.5 5.5 0 0 1 11 0z"/><circle cx="207" cy="399" r="11" fill="#25233A"/><path fill="#3F3D56" d="M216 399.5a5.5 5.5 0 1 1-11 0 5.5 5.5 0 0 1 11 0z"/><path fill="#2BD0D0" d="m257.08 390.87-50.78-10.04a6.5 6.5 0 0 1-5.17-7.64 6.62 6.62 0 0 1 7.78-5.06l50.8 10.02a6.5 6.5 0 0 1 5.16 7.64 6.62 6.62 0 0 1-7.79 5.08z"/><path fill="#2BD0D0" d="M226 310h14v59a7 7 0 0 1-7 7 7 7 0 0 1-7-7v-59z"/><path fill="#2BD0D0" d="m231.19 386.7-24.54 7.03a6.8 6.8 0 0 1-8.38-4.39 6.48 6.48 0 0 1 4.55-8.07l24.54-7a6.8 6.8 0 0 1 8.37 4.38 6.48 6.48 0 0 1-4.54 8.06z"/><path fill="url(#b)" d="m236 386.26-3.13.55a12.89 12.89 0 0 1-2.87.17l1.3-.23a10.3 10.3 0 0 0 2.51-.75l2.19.26z"/><path fill="url(#c)" d="M261 372.74a6.91 6.91 0 0 1-1.46 4.26L239 372.65a7.11 7.11 0 0 0 1.1-2.46l12.65-3.93a6.2 6.2 0 0 1 4.92.58 6.71 6.71 0 0 1 3.33 5.9z"/><path fill="url(#d)" d="M225.22 371.1a5.78 5.78 0 0 1-.22-1.58V311h5.94v63.07c-.06.31-.04.63.06.93a9.28 9.28 0 0 0-2.85-.51c-.69-.04-1.38-.04-2.07 0l.42-.1c.27-.04-.94-2.1-1.28-3.29z" opacity=".31"/><path fill="url(#e)" d="M262.29 389.8c-.97.52-2.06.8-3.17.8a7.06 7.06 0 0 1-1.33-.13l-22.4-4.41-1.88-.36a6.54 6.54 0 0 1-2.13 1.05l-1.1.32-23.03 6.67c-3.52 1-7.2-.95-8.25-4.37a5.8 5.8 0 0 0 7.22.4c2.81-1.9 14-4.74 20.34-6.25a7.68 7.68 0 0 0 5.93-6.52c1.06 1.11 3 2.36 6.5 3.42 8.65 2.6 22.67 4.3 22.67 4.3s2.54 2.43.63 5.08z" opacity=".31"/><path fill="url(#f)" d="M264 388a7.62 7.62 0 0 1-2 2 119.75 119.75 0 0 0 2-2z"/><path fill="url(#g)" d="M226.3 370.56a6.82 6.82 0 0 0 1.7 3.13 8 8 0 0 0-.64.15L206.09 380a6.61 6.61 0 0 1-5.05-7.15 6.7 6.7 0 0 1 6.56-5.85 7.14 7.14 0 0 1 1.35.13l17.35 3.43z"/><path fill="#503164" d="M259 89.4s-.28-20.8-17.07-19c-16.8 1.79-15.52-5.1-22.7-4.34-7.17.75-15.5 7.78-13.1 16.47 2.39 8.68-6.34 10.62-12.07 17.2-5.74 6.6 1.35 11.98 11 18.42 9.66 6.44-.6 4.77 5.13 14.96 5.72 10.18 25.1-2.83 25.1-2.83L259 89.41z"/><path fill="#2BD0D0" d="m122.66 434.6 11.73.4v-93.75s.6-24.24 23.46-26.67c22.86-2.43 230.2-32.46 230.2-32.46s8.21-.87 12.94 14.9c4.74 15.77 9.34 77.78 9.34 77.78l63.64 8.58s1.68-109.55-21.3-115.6c-22.98-6.04-323.52 24.77-323.52 24.77s-22.3 116.35-6.49 142.05z"/><path fill="url(#h)" d="m122.66 434.6 11.73.4v-93.75s.6-24.24 23.46-26.67c22.86-2.43 230.2-32.46 230.2-32.46s8.21-.87 12.94 14.9c4.74 15.77 9.34 77.78 9.34 77.78l63.64 8.58s1.68-109.55-21.3-115.6c-22.98-6.04-323.52 24.77-323.52 24.77s-22.3 116.35-6.49 142.05z" opacity=".2"/><path fill="#2BD0D0" d="M62 303.78s5.74-31.75 46.14-40.07l285.19-32.65s28-1.16 40.8 6.59c12.8 7.74 31.09 14.17 38.58 49.22 7.5 35.06 9.29 94.94 9.29 94.94l-7.09 1.1s-10.35-108.44-21.31-115.3c-10.97-6.87-307.4 35.25-307.4 35.25s-20.57 4.1-22.36 34.53c-1.79 30.45 0 96.61 0 96.61L62 409.06V303.78z"/><path fill="url(#i)" d="M355.43 243.84c-14.77-1.9-29.65-3.27-44.52-2.72-11.18.44-22.29 1.97-33.38 3.5l-97.77 13.5c-1.66.23-3.55.6-4.38 2.04-1.6 2.76 2.15 5.47 5.18 6.52 32.51 11.25 67.24 22.65 100.7 14.63 15.3-3.67 29.52-11.3 45.04-13.94 15.52-2.65 31.45-.2 46.93-2.7 14.56-2.35 28.42-9.01 43.17-9.08 4.53 0 9.19.58 13.48-.84 4.3-1.41 8.09-5.74 6.9-10.05-13.85-.48-29.4-3-43-.26-13.44 2.71-24.89-.6-38.35-.6z" opacity=".19"/><path fill="#2BD0D0" d="m267 259.38.57 2.11s16.88 10.18 16.77 10.5c-.1.33 70.03-16.24 70.03-16.24L356 251l-89 8.38z"/><path fill="url(#j)" d="m267 259.38.57 2.11s16.88 10.18 16.77 10.5c-.1.33 70.03-16.24 70.03-16.24L356 251l-89 8.38z"/><path fill="#2BD0D0" d="M268 259.36 330.1 246l25.9 5.05L285.44 268z"/><path fill="url(#k)" d="M268 259.36 330.1 246l25.9 5.05L285.44 268z"/><path fill="#2BD0D0" d="m247.83 270.48 14.46.52s3.67.22 4.62-2.72c.95-2.95-5.9-9.16-6.62-9.28-.74-.12-19.76 5.22-17.02 10.56l4.56.92z"/><path fill="url(#l)" d="m247.83 270.48 14.46.52s3.67.22 4.62-2.72c.95-2.95-5.9-9.16-6.62-9.28-.74-.12-19.76 5.22-17.02 10.56l4.56.92z"/><path fill="#2BD0D0" d="m79 416.06-7.06 21.67c-20.47 7.35-37.88 0-37.88 0L29 415s25.54 8.56 50 1.06z"/><path fill="url(#m)" d="m79 416.06-7.06 21.67c-20.47 7.35-37.88 0-37.88 0L29 415s25.54 8.56 50 1.06z"/><path fill="#2BD0D0" d="m87 396-2.28 16.94-5.79 3.01c-24.65 7.42-50.42-1.04-50.42-1.04l-4.44-3.28L22 396h65z"/><path fill="url(#n)" d="m87 396-2.28 16.94-5.79 3.01c-24.65 7.42-50.42-1.04-50.42-1.04l-4.44-3.28L22 396h65z"/><ellipse cx="54.5" cy="395" fill="#2BD0D0" rx="32.5" ry="6"/><ellipse cx="54.5" cy="395" fill="url(#o)" rx="32.5" ry="6"/><path fill="#2BD0D0" d="M39.64 265.03c-3.18-1.51-6.6-2.66-9.36-4.87-5.54-4.5-6.95-12.25-8.69-19.2-1.73-6.95-5.1-14.6-11.94-16.59-2.56-.73-5.57-.44-7.51 1.4-2.06 1.93-2.47 5.1-1.91 7.9.56 2.81 1.93 5.32 2.98 7.98a36.88 36.88 0 0 1 2.17 19.48c-.86 5.39-2.93 10.85-1.6 16.13 2.25 8.97 13.47 14.22 13.78 23.46.21 6.23-4.88 12-3.73 18.14.85 4.53 5 8.08 5.23 12.69.25 5.23-4.66 9.65-4.42 14.88.23 5.23 5.42 8.73 8.81 12.84a21.45 21.45 0 0 1 4.83 12.2c.18 2.79-.18 5.68.72 8.32.66 1.93 1.98 3.58 3 5.32 1.14 1.88 1.99 3.91 3.35 5.65a13.7 13.7 0 0 0 14.72 4.65c1.05-6.95.14-14.04.43-21.06.57-13.61 5.69-27.33 2.41-40.54-1.2-4.84-3.5-9.44-3.92-14.4-.36-4.45.81-8.85 1.63-13.23 1.7-9.04 1.67-18.39.97-27.53-.55-7.26-5.62-10.6-11.95-13.62z"/><path fill="#2BD0D0" d="M59.75 300.77c-.05 6.06 1.33 12.33-.61 18.08-1.47 4.36-4.7 7.94-6.37 12.22-3.85 9.9 1.33 21 .27 31.57-.44 4.36-1.93 8.54-2.88 12.82a51.24 51.24 0 0 0-.85 16.48 4.17 4.17 0 0 0 3.33 4.34A51.94 51.94 0 0 0 62.7 399a26.64 26.64 0 0 1 3.45-18.59c5.27-8.63 15.52-14.45 17.43-24.36 1.29-6.71-1.72-13.52-1.5-20.35a21.89 21.89 0 0 1 4.48-12.55c2.48-3.23 5.83-5.72 8.14-9.07 5.55-8.07 3.82-18.85 2.17-28.5-1.65-9.64-2.6-20.74 3.91-28.05 2.06-2.31 4.75-4.05 6.62-6.52 4.16-5.5 3.11-13.98-1.73-18.9-4.84-4.92-12.64-6.28-19.22-4.11a13.86 13.86 0 0 0-7.01 4.76c-3.33 4.71-2 11.15-.59 16.75 1.23 4.87 2.23 10.49.54 15.4-1.25 3.64-4.44 5.62-7.15 8.16a38.9 38.9 0 0 0-12.5 27.7z"/><path fill="#30C59B" d="M53.06 354.52c-.94 6.6-2.29 13.24-2.57 19.85v.67a1.76 1.76 0 0 1-.1.48 51.68 51.68 0 0 0-.88 16.5c.04.9.27 1.77.67 2.56l-.12.83a13.7 13.7 0 0 1-14.73-4.65c-1.32-1.74-2.2-3.77-3.34-5.65-1.05-1.75-2.34-3.4-3-5.32-.9-2.66-.55-5.54-.73-8.33a21.45 21.45 0 0 0-4.83-12.2c-3.39-4.08-8.58-7.5-8.82-12.83-.23-5.31 4.68-9.65 4.43-14.88-.22-4.62-4.38-8.16-5.23-12.7-1.16-6.13 3.96-11.9 3.73-18.13-.31-9.24-11.53-14.5-13.78-23.46-1.32-5.29.74-10.75 1.6-16.14a36.88 36.88 0 0 0-2.15-19.46C2.16 239 .8 236.5.23 233.7c-.56-2.81-.15-5.99 1.9-7.93 1.99-1.83 4.96-2.12 7.52-1.39 6.86 2 10.2 9.67 11.95 16.62 1.75 6.95 3.15 14.7 8.7 19.2 2.74 2.23 6.17 3.36 9.35 4.87 6.34 3.02 11.42 6.36 11.96 13.55.66 9.15.72 18.5-.97 27.54-.82 4.38-1.98 8.78-1.63 13.22.35 4.44 2.27 8.64 3.52 12.95.14.48.28.97.4 1.47 1.67 6.84 1.13 13.75.13 20.73z"/><path fill="url(#p)" d="M49.72 394a7.79 7.79 0 0 1-.5-2.49 67.1 67.1 0 0 1 .63-16.04l.08-.47c-.17 6.35.38 12.74-.21 19z"/><path fill="#30C59B" d="M107.4 251.01c-1.88 2.47-4.57 4.2-6.63 6.52-6.53 7.3-5.57 18.4-3.92 28.05 1.65 9.65 3.38 20.43-2.17 28.5-2.31 3.32-5.68 5.84-8.16 9.07a21.86 21.86 0 0 0-4.5 12.55c-.2 6.83 2.8 13.64 1.52 20.35-1.92 9.91-12.18 15.74-17.46 24.36A26.64 26.64 0 0 0 62.65 399a51.82 51.82 0 0 1-10.06-2.71 5.42 5.42 0 0 1-2.34-1.42 2.5 2.5 0 0 1-.25-.34 6.23 6.23 0 0 1-.7-2.55 51.15 51.15 0 0 1 1-16.97c.95-4.1 2.34-8.14 2.77-12.33a39.84 39.84 0 0 0-.16-8.17c1-6.97 1.55-13.88-.15-20.67a37.4 37.4 0 0 0-.4-1.46c.12-.43.27-.85.44-1.27 1.67-4.3 4.9-7.86 6.38-12.23 1.94-5.75.56-12.02.61-18.08.09-10.47 4.82-20.58 12.43-27.73 2.7-2.54 5.9-4.52 7.16-8.17 1.68-4.9.67-10.52-.54-15.39-1.42-5.6-2.77-12.04.59-16.75 1.66-2.34 4.29-3.86 7.02-4.76 6.56-2.17 14.4-.8 19.24 4.11 4.85 4.92 5.87 13.43 1.7 18.9z"/><path fill="#2BD0D0" d="M225.57 146.15s-27.81 4.3-40.68 34.97c-12.87 30.68-6.18 68.69-5.95 72.03.22 3.34 39.43 17.85 50.63 17.85 11.21 0 13.55-11.23 13.55-11.23l-19.8-8.43 60.16-6.95h10.8l-5.94 10.03s11.74 1.23 19.59 1.51c7.84.28 13.17-15.24 14.05-22.96.88-7.71-34.66-75.45-39.97-79.47-5.31-4.01-19.72-13.81-56.44-7.35z"/><path fill="url(#q)" d="M258.4 88.78s5.02 2.83 4.57 11.98c-.45 9.16-3.29 22.93-6.15 26.5-2.87 3.57-12.88 4.97-12.88 4.97s5.46 12.98 9.53 16.32c4.06 3.35-4.09 15.7-12.02 11.64-7.92-4.05-17.12-14.21-17.12-14.21s6.62-12.25 4.38-18.7c-2.24-6.44-10.77-29.06-4.38-35.23 6.4-6.18 20.19-15.04 34.06-3.27z"/><path fill="#FFF" opacity=".25" d="M214.33 190 210 244.06l13.24 6.94 10.76-1.88-13.43-16.5zm69.67-3s17.9 42.08 9.97 57l-6.12-1.16L284 187z"/><path fill="url(#r)" d="M235.52 258.05s-6.76 5.77-3.74 10.26c3.02 4.5 6.62 4.37 9.63 2.36 3-2.01 8.9-6.78 15.94-4.6 7.04 2.2 8.75 3.59 8.75 3.59s3.7-2.32 2.74-4.64-8.32-9.85-10.45-10.82c-2.13-.98-10.98 2.02-10.98 2.02s-6.5-1.76-11.89 1.83z"/><path fill="url(#s)" d="M295.2 245.6s-6.4.76-8 4.96c-1.62 4.2-2.2 4.7-2.2 4.7s3.6.7 5.1-1.26 3.06-1.13 3.06-1.13l-.44 2.5s9.8 1.48 14.22-.1c4.43-1.6 6.33-3.46 6.33-3.46l1.73-4.24s-4.18-3.03-7.33-3.5c-3.15-.47-12.48 1.53-12.48 1.53z"/><path fill="#25233A" d="M328.9 290s21.93 16.69 19.98 39.26c-1.95 22.57-4.82 56.09-4.82 56.09s-8.84 3.72-14.7 0c-5.87-3.73-9.41-54.65-12.32-59.52-2.9-4.86-20.37-26.79-39.04-28.68l50.9-7.15z"/><path fill="#3F3D56" d="M219 306.06s10.44 9.9 29.06 13c18.62 3.1 27.3 5.7 32.99 21.6 5.69 15.91 11.15 50.14 12.93 53.97 1.79 3.82 9.39 1.87 9.39 1.87s4.3-4.9 4.3-32.11c0-37.95 2.65-45.73-6.92-55.26-9.57-9.53-18.27-12.13-18.27-12.13L219 306.06z"/><path fill="#25233A" d="m294 396 1.82 14.2h3.4s21.96 1.18 22.64.67c.7-.51-1.05-11.24-9.37-10.94-8.31.3-8.86-2.02-8.86-2.02L294 396zm37-9.84 3.52 13.84 38.43-5.21s1.36-9.1-10.82-8.2c-3.21.24-5.6 2.47-9.47 2.5-3.86.01-7.56-1.55-9.51-4.09L331 386.16z"/><path fill="#2BD0D0" d="m461.8 212.34-142.24 7.65a6.25 6.25 0 0 1-6.56-5.93V112.47c0-4.1 3.27-7.45 7.35-7.53L462 102a6.83 6.83 0 0 1 4.89 1.92 6.9 6.9 0 0 1 2.1 4.83v95.97c0 4.05-3.16 7.4-7.2 7.62z"/><path fill="#2BD0D0" d="m469.8 212.34-142.25 7.65a6.25 6.25 0 0 1-6.55-5.93V112.47c0-4.1 3.26-7.45 7.34-7.53L470.02 102a6.87 6.87 0 0 1 6.98 6.74v95.98c0 4.05-3.16 7.4-7.2 7.62z"/><path fill="url(#t)" d="m469.8 212.34-142.25 7.65a6.25 6.25 0 0 1-6.55-5.93V112.47c0-4.1 3.26-7.45 7.34-7.53L470.02 102a6.87 6.87 0 0 1 6.98 6.74v95.98c0 4.05-3.16 7.4-7.2 7.62z"/><path fill="#3A3054" d="m427.77 251.14-36.3 3.86s-11.05-2.23-10.45-3.86c.6-1.63 12.16-3.2 12.16-3.2v-65.81c-.1-.15-1.62-2.09-5.79-3.32-.8-.24-1.63-.43-2.46-.57a7.25 7.25 0 0 1-2.06-.62c-2.48-1.28.26-3.51 4.1-3.61a9.63 9.63 0 0 1 1.81.1h27.91s10.57 2.97 11.08 17.81c.51 14.84 0 59.22 0 59.22z"/><path fill="#51466B" d="m398 251.28-6.68 3.72s-10.89-2.23-10.3-3.86c.6-1.63 12-3.2 12-3.2v-65.82c-.14-.15-1.8-1.9-5.7-3.32a28.64 28.64 0 0 0-4.46-1.19c-2.44-1.28.26-3.51 4.05-3.61 3.23.44 9.58 4.03 10 6.07.4 2.05 1.09 71.2 1.09 71.2z"/><path fill="url(#u)" d="M263 389c-.88 1-1.29 1.37-.77.55.27-.16.53-.34.77-.55z"/></g></svg>